<svg width="102" height="102" viewBox="0 0 102 102" fill="none" xmlns="http://www.w3.org/2000/svg">
<circle cx="51" cy="51" r="51" fill="#C4C4C4"/>
<g clip-path="url(#clip0)">
<path d="M51.4496 35.1591C42.8075 35.1591 35.8368 42.1298 35.8368 50.7719C35.8368 59.414 42.8075 66.3847 51.4496 66.3847C60.0916 66.3847 67.0624 59.414 67.0624 50.7719C67.0624 42.1298 60.0916 35.1591 51.4496 35.1591ZM51.4496 60.9223C45.8648 60.9223 41.2992 56.3702 41.2992 50.7719C41.2992 45.1736 45.8512 40.6215 51.4496 40.6215C57.0479 40.6215 61.5999 45.1736 61.5999 50.7719C61.5999 56.3702 57.0343 60.9223 51.4496 60.9223ZM71.3426 34.5205C71.3426 36.5451 69.7121 38.1621 67.701 38.1621C65.6764 38.1621 64.0594 36.5315 64.0594 34.5205C64.0594 32.5094 65.69 30.8788 67.701 30.8788C69.7121 30.8788 71.3426 32.5094 71.3426 34.5205ZM81.6832 38.2164C81.4522 33.3383 80.338 29.0173 76.7643 25.4571C73.2042 21.897 68.8832 20.7828 64.005 20.5382C58.9774 20.2529 43.9081 20.2529 38.8805 20.5382C34.0159 20.7692 29.6949 21.8835 26.1212 25.4436C22.5475 29.0037 21.4469 33.3247 21.2023 38.2029C20.9169 43.2305 20.9169 58.2998 21.2023 63.3274C21.4333 68.2055 22.5475 72.5266 26.1212 76.0867C29.6949 79.6468 34.0024 80.761 38.8805 81.0056C43.9081 81.2909 58.9774 81.2909 64.005 81.0056C68.8832 80.7746 73.2042 79.6604 76.7643 76.0867C80.3244 72.5266 81.4387 68.2055 81.6832 63.3274C81.9686 58.2998 81.9686 43.2441 81.6832 38.2164ZM75.1881 68.7219C74.1282 71.3852 72.0764 73.437 69.3995 74.5104C65.391 76.1003 55.8793 75.7334 51.4496 75.7334C47.0198 75.7334 37.4945 76.0867 33.4996 74.5104C30.8363 73.4506 28.7845 71.3987 27.711 68.7219C26.1212 64.7134 26.4881 55.2017 26.4881 50.7719C26.4881 46.3422 26.1348 36.8169 27.711 32.8219C28.7709 30.1587 30.8227 28.1068 33.4996 27.0334C37.5081 25.4436 47.0198 25.8104 51.4496 25.8104C55.8793 25.8104 65.4046 25.4571 69.3995 27.0334C72.0628 28.0933 74.1146 30.1451 75.1881 32.8219C76.7779 36.8304 76.411 46.3422 76.411 50.7719C76.411 55.2017 76.7779 64.727 75.1881 68.7219Z" fill="url(#paint0_linear)"/>
</g>
<defs>
<linearGradient id="paint0_linear" x1="51.4428" y1="20.3242" x2="51.4428" y2="81.2196" gradientUnits="userSpaceOnUse">
<stop stop-color="#6F1717"/>
<stop offset="0.609375" stop-color="#191E52" stop-opacity="0.79"/>
<stop offset="1" stop-color="#130937" stop-opacity="0.94"/>
</linearGradient>
<clipPath id="clip0">
<rect x="21" y="16" width="60.875" height="69.5714" fill="white"/>
</clipPath>
</defs>
</svg>
